<?xml version="1.0" standalone="no"?>
<!DOCTYPE svg PUBLIC "-//W3C//DTD SVG 20010904//EN"
 "http://www.w3.org/TR/2001/REC-SVG-20010904/DTD/svg10.dtd">
<svg version="1.0" xmlns="http://www.w3.org/2000/svg"
 width="500.000000pt" height="500.000000pt" viewBox="0 0 500.000000 500.000000"
 preserveAspectRatio="xMidYMid meet">
<metadata>
Created by potrace 1.14, written by Peter Selinger 2001-2017
</metadata>
<g transform="translate(0.000000,500.000000) scale(0.100000,-0.100000)"
fill="#000000" stroke="none">
<path d="M3308 4133 c7 -3 16 -2 19 1 4 3 -2 6 -13 5 -11 0 -14 -3 -6 -6z"/>
<path d="M3760 4110 c0 -5 5 -10 11 -10 5 0 7 5 4 10 -3 6 -8 10 -11 10 -2 0
-4 -4 -4 -10z"/>
<path d="M3509 4088 c-7 -103 -5 -189 5 -195 6 -3 8 -3 4 2 -4 4 -4 13 1 19
11 14 59 135 63 161 2 16 -4 20 -34 22 -25 2 -38 -1 -39 -9z"/>
<path d="M2327 4004 c-1 -1 -32 -5 -69 -8 -154 -16 -279 -49 -442 -117 -37
-16 -73 -29 -78 -29 -6 0 -27 13 -47 29 -175 139 -402 147 -571 21 -125 -93
-185 -198 -193 -338 -8 -137 32 -265 109 -346 l37 -38 -23 -62 c-35 -93 -78
-224 -84 -254 -29 -160 -34 -210 -31 -362 3 -141 8 -193 30 -300 2 -8 4 -15 5
-15 1 0 3 -10 6 -22 20 -111 169 -431 224 -483 3 -3 17 -23 33 -45 50 -74 221
-239 317 -306 180 -125 380 -213 559 -244 19 -3 37 -7 40 -9 14 -9 166 -20
266 -20 179 1 293 20 489 85 89 30 225 94 238 113 4 6 33 1 80 -15 84 -30 201
-37 270 -18 23 7 49 13 56 15 24 5 92 50 151 99 162 138 199 380 89 576 -20
36 -21 43 -9 72 65 158 99 361 96 575 -2 133 -6 176 -21 252 -2 14 -7 36 -9
50 -9 49 -43 156 -73 228 -31 74 -144 279 -172 310 -8 10 -37 44 -65 77 -85
102 -136 150 -250 235 -200 150 -475 260 -715 285 -63 7 -238 13 -243 9z
m-824 -240 c12 -11 26 -26 32 -34 30 -48 -3 -141 -69 -192 -22 -18 -52 -45
-66 -60 -15 -17 -37 -29 -55 -31 -17 -2 -36 -6 -42 -10 -19 -12 -23 21 -8 57
8 19 25 45 38 58 36 37 67 80 67 92 0 7 -6 20 -13 30 -13 17 -15 17 -42 -8
-15 -14 -24 -26 -20 -26 4 0 2 -7 -5 -15 -15 -19 -106 -21 -112 -3 -5 13 5 35
36 80 20 30 71 65 114 78 42 13 120 4 145 -16z m-108 -366 c-3 -18 -7 -44 -8
-57 -2 -26 -19 -35 -91 -45 l-49 -8 8 34 c4 18 8 43 9 55 3 38 25 48 104 52
32 1 33 0 27 -31z m2201 -365 c-3 -16 -14 -59 -25 -98 -11 -38 -34 -122 -51
-185 -18 -63 -35 -118 -39 -123 -4 -4 -30 -10 -58 -13 l-50 -6 3 63 c1 35 3
126 5 202 1 75 6 143 11 150 4 6 8 10 8 7 0 -4 178 22 198 29 2 1 1 -11 -2
-26z m-281 -65 c-8 -59 -24 -95 -60 -136 -81 -90 -275 -336 -275 -348 0 -3 12
-3 28 0 15 3 44 9 66 12 21 3 46 7 55 9 9 1 40 6 69 10 l54 7 -7 -48 c-4 -27
-8 -59 -8 -71 -1 -13 -3 -23 -5 -23 -2 0 -72 -11 -155 -25 -84 -13 -170 -27
-192 -30 -22 -4 -51 -8 -65 -11 -14 -2 -45 -7 -69 -10 l-43 -6 6 29 c3 15 8
44 11 63 3 19 11 42 18 51 37 51 129 168 149 189 13 14 55 65 93 114 l69 89
-35 -6 c-28 -5 -98 -13 -185 -20 -21 -2 -22 4 -11 80 l7 51 63 11 c34 6 80 13
102 16 22 4 51 8 65 11 14 3 45 7 70 11 38 5 178 29 188 32 2 1 1 -23 -3 -51z
m-570 -81 c-3 -18 -8 -39 -10 -47 -2 -8 -7 -35 -10 -60 -9 -67 -14 -100 -25
-155 -5 -27 -12 -63 -14 -80 -3 -16 -12 -70 -21 -120 -8 -49 -16 -101 -18
-114 -2 -13 -10 -25 -18 -27 -8 -1 -32 -4 -54 -8 -22 -3 -57 -9 -79 -12 l-38
-6 6 43 c4 24 11 64 16 89 5 25 11 59 14 75 2 17 13 84 25 150 11 66 23 138
27 160 3 22 8 47 9 55 2 8 4 22 4 30 2 26 17 40 47 45 94 13 119 18 123 21 11
11 20 -11 16 -39z m-296 -109 c-10 -57 -21 -119 -24 -138 -2 -19 -9 -57 -15
-83 -5 -26 -12 -72 -15 -100 -15 -154 -136 -254 -322 -265 -75 -4 -86 -2 -127
22 -31 18 -48 36 -56 60 -13 39 -16 100 -7 136 7 25 15 77 23 140 2 19 9 58
14 85 5 28 12 64 15 80 11 66 16 89 18 92 1 1 29 4 62 7 33 4 75 9 94 12 l34
7 -7 -54 c-3 -30 -8 -65 -11 -79 -3 -14 -7 -40 -10 -59 -2 -18 -7 -41 -9 -50
-3 -9 -8 -36 -11 -61 -3 -25 -8 -56 -10 -70 -3 -14 -7 -35 -10 -47 -5 -30 25
-66 56 -65 66 0 100 37 114 122 4 25 9 54 11 65 3 11 7 36 9 55 3 19 8 44 10
56 3 12 7 39 10 60 20 132 26 154 44 155 21 1 75 10 78 12 1 2 15 4 31 5 l29
2 -18 -102z m-747 -49 c96 -49 134 -184 93 -334 -29 -109 -69 -171 -141 -220
l-36 -25 25 -9 c26 -10 36 -9 90 4 l27 7 0 -66 c0 -60 -2 -67 -23 -75 -23 -9
-77 -14 -125 -12 -31 1 -82 56 -82 87 0 22 -3 24 -27 17 -90 -25 -202 11 -249
79 -84 120 -44 334 85 466 99 101 256 136 363 81z m1809 -151 c1 -7 0 -17 -1
-23 -2 -5 -5 -30 -8 -55 -8 -80 -14 -87 -79 -94 -32 -4 -71 -9 -86 -12 l-29
-6 6 49 c7 61 17 117 22 122 4 5 128 28 157 30 9 0 18 -5 18 -11z m47 -783
c12 -14 26 -25 32 -25 32 0 -3 -50 -110 -156 -65 -65 -124 -120 -130 -122 -7
-3 -52 37 -102 88 l-90 92 33 36 c19 20 38 40 44 44 5 4 33 -16 63 -44 l53
-50 80 81 c44 45 86 81 93 81 7 0 22 -11 34 -25z"/>
<path d="M1515 2600 c-56 -22 -91 -108 -102 -251 -5 -72 -4 -77 18 -93 35 -24
82 -20 111 8 33 34 60 125 65 221 4 59 1 85 -9 99 -16 20 -52 28 -83 16z"/>
<path d="M3785 3934 c-27 -26 -65 -59 -84 -75 -19 -16 -33 -31 -30 -33 3 -3
38 3 79 13 41 11 92 22 113 25 20 4 37 11 37 16 0 11 -53 99 -60 100 -3 0 -27
-21 -55 -46z"/>
<path d="M3381 3956 c-25 -30 12 -57 41 -28 8 8 8 15 -2 27 -15 19 -24 19 -39
1z"/>
<path d="M3860 3655 c-25 -7 -65 -19 -90 -25 -42 -12 -43 -13 -21 -22 14 -5
41 -11 60 -14 20 -3 43 -9 51 -13 8 -4 28 -7 44 -7 28 1 30 3 32 49 3 53 0 55
-76 32z"/>
<path d="M3840 3421 c0 -24 25 -34 40 -16 15 18 5 35 -21 35 -12 0 -19 -7 -19
-19z"/>
<path d="M4085 3430 c3 -5 8 -10 11 -10 2 0 4 5 4 10 0 6 -5 10 -11 10 -5 0
-7 -4 -4 -10z"/>
</g>
</svg>
